<svg width="36" height="36" viewBox="0 0 36 36" fill="none" xmlns="http://www.w3.org/2000/svg">
<path fill-rule="evenodd" clip-rule="evenodd" d="M2.76106 30.1591L11.6955 24.9105L17.8549 14.1159V3.70825C17.6925 3.70825 17.53 3.81658 17.4067 4.03202L10.1107 16.8187L2.81522 29.6053C2.69225 29.8211 2.68058 30.0168 2.76106 30.1591Z" fill="#FF4724"/>
<path fill-rule="evenodd" clip-rule="evenodd" d="M17.8549 3.70825V14.1159L24.0141 24.9105L32.9485 30.1591C33.0292 30.0168 33.0176 29.8211 32.8946 29.6053L25.5989 16.8187L18.3028 4.03202C18.1795 3.81628 18.0171 3.70825 17.8549 3.70825Z" fill="#9E1F63"/>
<path fill-rule="evenodd" clip-rule="evenodd" d="M32.9486 30.1595L24.0141 24.9109H11.6956L2.76117 30.1595C2.84165 30.3024 3.01488 30.391 3.26142 30.391H32.448C32.6946 30.391 32.8678 30.3024 32.9486 30.1595Z" fill="#662D91"/>
<path fill-rule="evenodd" clip-rule="evenodd" d="M11.6956 24.9105H24.0141L17.855 14.116L11.6956 24.9105Z" fill="white"/>
</svg>
