<svg width="314" height="128" viewBox="0 0 314 128" fill="none" xmlns="http://www.w3.org/2000/svg">
<path fill-rule="evenodd" clip-rule="evenodd" d="M91.4275 47.028L88.4086 38.996L90.5059 34.382C90.7753 33.788 90.6457 33.091 90.1793 32.63L84.4731 26.973C81.9778 24.501 78.2546 23.651 74.9009 24.791L73.3057 25.333L64.9715 16H52.711H44.9408H34.3265L26.0989 25.446L24.5476 24.911C21.1632 23.744 17.3952 24.603 14.8835 27.114L9.07627 32.877C8.70375 33.246 8.60169 33.8 8.81806 34.273L11.0093 39.062L8.00566 47.09L9.9499 54.328L18.8046 87.319C19.8242 91.123 22.1736 94.454 25.4416 96.735C25.4416 96.735 36.1926 104.165 46.8017 110.913C47.7346 111.507 48.7103 111.941 49.7574 111.925C50.8045 111.939 51.7802 111.507 52.711 110.91C64.6265 103.257 74.0538 96.705 74.0538 96.705C77.3187 94.42 79.6641 91.085 80.6796 87.28L89.4924 54.276L91.4275 47.028Z" fill="url(#paint0_linear)"/>
<path fill-rule="evenodd" clip-rule="evenodd" d="M82.006 48.6206L81.868 49.0507L81.6483 49.8218C81.0616 50.5379 79.8248 51.9122 78.8988 52.8773L70.3864 61.7428C69.4604 62.7069 68.9379 63.9162 69.4663 65.1344L70.6144 67.9067C71.1418 69.1239 71.1939 71.1383 70.688 72.4905C70.1738 73.8667 69.2887 75.0829 68.1285 76.01L67.2403 76.7192C66.1926 77.5563 64.3364 77.7763 63.115 77.2072L59.1941 75.3849C57.9736 74.8179 56.1522 73.6287 55.1464 72.7425L51.4371 69.476C50.7134 68.8379 50.6725 67.7417 51.3461 67.0556L60.3797 61.0846C61.5 60.3445 62.093 58.9753 61.4562 57.8081L58.2445 52.0832C57.6077 50.915 57.3532 49.3638 57.6782 48.6346C58.0043 47.9055 59.3044 46.9254 60.5698 46.4563L71.0561 42.6397C72.3205 42.1706 72.253 41.6865 70.9069 41.5625L64.2064 41.0744C62.8592 40.9504 61.872 41.1424 60.5698 41.4985L55.4984 42.7277C54.1962 43.0837 53.9209 44.441 54.1652 45.7412L56.2575 56.855C56.5028 58.1562 56.6224 59.4664 56.5242 59.7674C56.4261 60.0685 55.267 60.5536 53.9485 60.8466L52.2139 61.2317C50.8954 61.5247 48.7346 61.5377 47.4129 61.2627L45.3145 60.8246C43.9919 60.5486 42.8297 60.0765 42.7305 59.7764C42.6324 59.4754 42.751 58.1632 42.9953 56.863L45.0743 45.7472C45.3186 44.446 45.0412 43.0907 43.739 42.7357L38.6655 41.5125C37.3633 41.1574 36.3751 40.9694 35.029 41.0934L28.3285 41.5875C26.9823 41.7125 26.9159 42.1966 28.1803 42.6637L38.6727 46.4693C39.9371 46.9374 41.2393 47.9155 41.5653 48.6446C41.8924 49.3728 41.6389 50.924 41.0042 52.0922L37.7985 57.8191C37.1638 58.9873 37.7579 60.3565 38.8791 61.0956L47.9209 67.0576C48.5956 67.7427 48.5557 68.8399 47.833 69.478L44.1268 72.7495C43.123 73.6367 41.3026 74.8269 40.0822 75.3969L36.1644 77.2242C34.9439 77.7933 33.0867 77.5763 32.039 76.7412L31.1508 76.0331C29.9886 75.1069 29.1014 73.8917 28.5444 72.4065C28.0783 71.1633 28.1273 69.1509 28.6527 67.9317L29.7987 65.1594C30.3251 63.9402 29.8006 62.7309 28.8735 61.7678L20.3509 52.9123C19.4249 51.9492 18.186 50.5759 17.5993 49.8618L17.3775 49.0897L17.2395 48.6596C17.2263 48.1646 17.4072 46.5863 17.6126 46.1592C17.8181 45.7342 18.6051 44.488 19.3625 43.3918L21.186 40.7504C21.9434 39.6542 23.2528 37.9109 24.095 36.8757L26.7679 33.5952C27.6101 32.561 28.3287 31.7189 28.437 31.7259C28.4421 31.7189 29.5328 31.9179 30.8605 32.167L34.9092 32.9281C36.2369 33.1771 37.7016 33.4512 38.1647 33.5362C38.6267 33.6222 40.0577 33.3582 41.3445 32.9501L44.2566 32.027C45.5424 31.6179 47.4947 31.0798 48.5935 30.8298L49.6116 30.8448L50.6296 30.8288C51.7284 31.0768 53.6807 31.6129 54.9675 32.02L57.8816 32.9401C59.1685 33.3472 60.5995 33.6092 61.0615 33.5232C61.459 33.4494 62.5937 33.2348 63.747 33.0167L64.316 32.9091L68.3636 32.145C69.6914 31.8939 70.782 31.6939 70.8597 31.6999C70.8954 31.6939 71.614 32.533 72.4583 33.5682L75.1353 36.8457C75.9795 37.8789 77.2899 39.6202 78.0494 40.7164L79.8759 43.3548C80.6343 44.45 81.819 46.4433 81.8926 46.8964C81.9682 47.3494 82.0183 48.1256 82.006 48.6206ZM50.1635 75.0763C50.2821 75.0763 51.4023 75.4894 52.6514 75.9964L53.8105 76.4665C55.0595 76.9726 57.069 77.8768 58.2741 78.4758L61.6942 80.1761C62.8993 80.7742 62.9862 81.8944 61.8863 82.6645L58.9692 84.7069C57.8694 85.477 56.1399 86.8132 55.127 87.6793C54.847 87.9185 54.5182 88.1994 54.1676 88.4988C53.2483 89.284 52.1793 90.197 51.4483 90.8218C50.4385 91.685 48.802 91.689 47.8116 90.8328C46.8201 89.9757 45.1796 88.5725 44.1646 87.7153C43.1506 86.8572 41.4171 85.531 40.3122 84.7689L37.4052 82.7585C36.3003 81.9944 36.379 80.8692 37.578 80.2581L41.0164 78.5059C42.2154 77.8938 44.2177 76.9776 45.4668 76.4715L46.6259 75.9995C47.8739 75.4924 48.9932 75.0763 49.1127 75.0763H49.6381H50.1635Z" fill="url(#paint1_linear)"/>
<path d="M173.911 66.716H160.175V80.792H152.967V66.716H139.231V60.188H152.967V46.112H160.175V60.188H173.911V66.716Z" fill="black"/>
<path fill-rule="evenodd" clip-rule="evenodd" d="M217.228 103.207L245.353 86.6966L264.742 52.7396V19.9996C264.231 19.9996 263.72 20.3404 263.332 21.0181L240.364 61.2417L217.399 101.465C217.011 102.144 216.975 102.76 217.228 103.207Z" fill="#FF4724"/>
<path fill-rule="evenodd" clip-rule="evenodd" d="M264.743 19.9996V52.7396L284.131 86.6966L312.256 103.207C312.51 102.76 312.474 102.144 312.087 101.465L289.12 61.2417L266.153 21.0181C265.765 20.3394 265.253 19.9996 264.743 19.9996Z" fill="#9E1F63"/>
<path fill-rule="evenodd" clip-rule="evenodd" d="M312.256 103.207L284.131 86.6966H245.353L217.229 103.207C217.482 103.657 218.027 103.936 218.803 103.936H310.681C311.457 103.936 312.002 103.657 312.256 103.207Z" fill="#662D91"/>
<path fill-rule="evenodd" clip-rule="evenodd" d="M245.353 86.6967H284.131L264.743 52.7397L245.353 86.6967Z" fill="white"/>
<defs>
<linearGradient id="paint0_linear" x1="8.00566" y1="112.602" x2="91.4275" y2="112.602" gradientUnits="userSpaceOnUse">
<stop stop-color="#FF5500"/>
<stop offset="0.409877" stop-color="#FF5500"/>
<stop offset="0.49434" stop-color="#FF4530"/>
<stop offset="0.572365" stop-color="#FF2000"/>
<stop offset="1" stop-color="#FF2000"/>
</linearGradient>
<linearGradient id="paint1_linear" x1="49.6234" y1="105.653" x2="79.9142" y2="105.653" gradientUnits="userSpaceOnUse">
<stop stop-color="white"/>
<stop offset="1" stop-color="#F4F4F4"/>
</linearGradient>
</defs>
</svg>
