<svg width="683" height="485" viewBox="0 0 683 485" fill="none" xmlns="http://www.w3.org/2000/svg">
<g filter="url(#filter0_d)">
<path d="M40 53.7659C40 46.4831 45.9039 40.5792 53.1867 40.5792H629.887C637.17 40.5792 643.074 46.4831 643.074 53.7659V93.3259H40V53.7659Z" fill="#2D2F46"/>
<path d="M40 93.3259H643.074V431.234C643.074 438.517 637.17 444.421 629.887 444.421H53.1866C45.9039 444.421 40 438.517 40 431.234V93.3259Z" fill="white"/>
<rect x="140.14" y="58.7109" width="402.193" height="19.78" rx="9.89" fill="#555779"/>
<path fill-rule="evenodd" clip-rule="evenodd" d="M582.055 62.9688L581.219 60.7468L581.8 59.4704C581.874 59.3061 581.838 59.1133 581.709 58.9857L580.131 57.4208C579.44 56.7369 578.41 56.5018 577.483 56.8172L577.041 56.9671L574.736 54.3852H571.344H569.195H566.258L563.982 56.9984L563.553 56.8504C562.617 56.5275 561.574 56.7652 560.879 57.4598L559.273 59.0541C559.17 59.1562 559.142 59.3094 559.202 59.4403L559.808 60.7651L558.977 62.986L559.515 64.9883L561.964 74.1149C562.246 75.1672 562.896 76.0887 563.8 76.7197C563.8 76.7197 566.774 78.7751 569.709 80.6419C569.967 80.8062 570.237 80.9263 570.527 80.9219C570.817 80.9257 571.087 80.8062 571.344 80.6411C574.64 78.524 577.248 76.7114 577.248 76.7114C578.152 76.0793 578.8 75.1567 579.081 74.1041L581.519 64.9739L582.055 62.9688Z" fill="url(#paint0_linear)"/>
<path fill-rule="evenodd" clip-rule="evenodd" d="M579.448 63.4094L579.41 63.5284L579.349 63.7417C579.187 63.9398 578.845 64.32 578.588 64.587L576.234 67.0395C575.977 67.3062 575.833 67.6407 575.979 67.9777L576.297 68.7447C576.443 69.0814 576.457 69.6386 576.317 70.0127C576.175 70.3934 575.93 70.7299 575.609 70.9864L575.363 71.1825C575.073 71.4141 574.56 71.475 574.222 71.3176L573.137 70.8134C572.8 70.6566 572.296 70.3276 572.018 70.0824L570.991 69.1788C570.791 69.0023 570.78 68.699 570.966 68.5092L573.465 66.8574C573.775 66.6527 573.939 66.2739 573.763 65.951L572.875 64.3673C572.698 64.0441 572.628 63.615 572.718 63.4133C572.808 63.2116 573.168 62.9404 573.518 62.8106L576.419 61.7548C576.769 61.625 576.75 61.4911 576.378 61.4568L574.524 61.3218C574.151 61.2875 573.878 61.3406 573.518 61.4391L572.115 61.7792C571.755 61.8777 571.679 62.2531 571.746 62.6128L572.325 65.6873C572.393 66.0473 572.426 66.4097 572.399 66.493C572.372 66.5763 572.051 66.7105 571.686 66.7916L571.206 66.8981C570.842 66.9792 570.244 66.9828 569.878 66.9067L569.298 66.7855C568.932 66.7091 568.61 66.5785 568.583 66.4955C568.556 66.4122 568.589 66.0492 568.656 65.6895L569.231 62.6145C569.299 62.2545 569.222 61.8796 568.862 61.7814L567.458 61.443C567.098 61.3448 566.825 61.2928 566.452 61.3271L564.599 61.4637C564.226 61.4983 564.208 61.6322 564.558 61.7615L567.46 62.8142C567.81 62.9437 568.17 63.2143 568.261 63.416C568.351 63.6175 568.281 64.0466 568.105 64.3698L567.219 65.954C567.043 66.2772 567.207 66.656 567.517 66.8605L570.019 68.5098C570.205 68.6993 570.194 69.0028 569.994 69.1794L568.969 70.0844C568.691 70.3298 568.188 70.6591 567.85 70.8168L566.766 71.3223C566.429 71.4797 565.915 71.4197 565.625 71.1886L565.379 70.9927C565.058 70.7365 564.813 70.4004 564.658 69.9895C564.529 69.6456 564.543 69.0889 564.688 68.7516L565.005 67.9847C565.151 67.6474 565.006 67.3128 564.749 67.0464L562.392 64.5966C562.136 64.3302 561.793 63.9503 561.631 63.7527L561.569 63.5391L561.531 63.4202C561.527 63.2832 561.577 62.8466 561.634 62.7285C561.691 62.6109 561.909 62.2661 562.118 61.9629L562.623 61.2322C562.832 60.9289 563.195 60.4467 563.428 60.1603L564.167 59.2528C564.4 58.9667 564.599 58.7337 564.629 58.7356C564.63 58.7337 564.932 58.7888 565.299 58.8577L566.419 59.0682C566.786 59.1371 567.192 59.2129 567.32 59.2364C567.448 59.2602 567.843 59.1872 568.199 59.0743L569.005 58.8189C569.361 58.7058 569.901 58.5569 570.205 58.4877L570.486 58.4919L570.768 58.4875C571.072 58.5561 571.612 58.7044 571.968 58.817L572.774 59.0715C573.13 59.1841 573.526 59.2566 573.654 59.2328C573.764 59.2124 574.078 59.1531 574.397 59.0927L574.554 59.063L575.674 58.8516C576.041 58.7821 576.343 58.7268 576.365 58.7284C576.374 58.7268 576.573 58.9589 576.807 59.2453L577.547 60.152C577.781 60.4378 578.143 60.9195 578.353 61.2228L578.859 61.9526C579.069 62.2556 579.396 62.807 579.417 62.9324C579.438 63.0577 579.451 63.2724 579.448 63.4094ZM570.639 70.7281C570.672 70.7281 570.982 70.8423 571.328 70.9826L571.648 71.1127C571.994 71.2527 572.55 71.5028 572.883 71.6685L573.829 72.1389C574.163 72.3043 574.187 72.6142 573.882 72.8273L573.075 73.3923C572.771 73.6053 572.293 73.975 572.013 74.2146L570.995 75.0839C570.716 75.3227 570.263 75.3238 569.989 75.0869C569.715 74.8498 569.261 74.4616 568.98 74.2245C568.699 73.9871 568.22 73.6202 567.914 73.4094L567.11 72.8533C566.804 72.6419 566.826 72.3306 567.158 72.1616L568.109 71.6768C568.441 71.5075 568.995 71.254 569.34 71.114L569.661 70.9834C570.006 70.8432 570.316 70.7281 570.349 70.7281H570.494H570.639Z" fill="url(#paint1_linear)"/>
<path fill-rule="evenodd" clip-rule="evenodd" d="M597.75 78.5102L605.53 73.9427L610.894 64.5489V55.4917C610.752 55.4917 610.611 55.586 610.504 55.7735L604.15 66.9009L597.797 78.0283C597.69 78.2161 597.68 78.3864 597.75 78.5102Z" fill="#FF4724"/>
<path fill-rule="evenodd" clip-rule="evenodd" d="M610.894 55.4917V64.5488L616.258 73.9427L624.038 78.5102C624.108 78.3864 624.098 78.2161 623.991 78.0283L617.638 66.9009L611.284 55.7734C611.177 55.5857 611.035 55.4917 610.894 55.4917Z" fill="#9E1F63"/>
<path fill-rule="evenodd" clip-rule="evenodd" d="M624.038 78.5102L616.258 73.9427H605.53L597.75 78.5102C597.82 78.6346 597.971 78.7117 598.185 78.7117H623.602C623.817 78.7117 623.968 78.6346 624.038 78.5102Z" fill="#662D91"/>
<path fill-rule="evenodd" clip-rule="evenodd" d="M605.53 73.9427H616.258L610.894 64.5489L605.53 73.9427Z" fill="white"/>
<circle cx="59.372" cy="58.7569" r="4.945" fill="#555779"/>
<circle cx="75.8554" cy="58.7569" r="4.945" fill="#555779"/>
<circle cx="92.3387" cy="58.7569" r="4.945" fill="#555779"/>
<rect x="87.3937" y="218.599" width="83.5969" height="7.70649" rx="3.85325" fill="#84889C"/>
<rect x="87.3937" y="238.379" width="154.333" height="8.62699" rx="4.31349" fill="#84889C"/>
<rect x="281.897" y="202.116" width="319.777" height="197.8" rx="13.1867" fill="#F8F9FA"/>
<rect x="447.188" y="277.049" width="53.7432" height="6.14208" rx="3.07104" fill="#AEB1C2"/>
<rect x="447.188" y="263.229" width="76.7759" height="6.14208" rx="3.07104" fill="#353DAB"/>
<rect x="447.188" y="232.519" width="18.4262" height="18.4262" rx="9.21311" fill="#3B3E4F"/>
<rect x="562.295" y="263.229" width="15.3552" height="6.14208" rx="3.07104" fill="#AEB1C2"/>
<rect x="553.139" y="277.049" width="24.5683" height="6.14208" rx="3.07104" fill="#353DAB"/>
<ellipse cx="454.134" cy="328.238" rx="5.12673" ry="5.12319" fill="#353DAB"/>
<rect x="456.942" y="327.872" width="0.975846" height="5.61499" rx="0.487923" transform="rotate(90 456.942 327.872)" fill="white"/>
<rect x="454.622" y="331.166" width="0.97652" height="5.61111" rx="0.48826" transform="rotate(-180 454.622 331.166)" fill="white"/>
<rect x="470.221" y="326.186" width="30.7104" height="4.60656" rx="2.30328" fill="#AEB1C2"/>
<rect x="508.609" y="326.186" width="15.3552" height="4.60656" rx="2.30328" fill="#353DAB"/>
<rect x="556.762" y="326.186" width="21.4973" height="4.60656" rx="2.30328" fill="#AEB1C2"/>
<ellipse cx="454.134" cy="352.806" rx="5.12673" ry="5.12319" fill="#353DAB"/>
<rect x="456.942" y="352.441" width="0.975846" height="5.61499" rx="0.487923" transform="rotate(90 456.942 352.441)" fill="white"/>
<rect x="454.622" y="355.734" width="0.97652" height="5.61111" rx="0.48826" transform="rotate(-180 454.622 355.734)" fill="white"/>
<rect x="470.221" y="350.754" width="30.7104" height="4.60656" rx="2.30328" fill="#353DAB"/>
<rect x="508.609" y="350.754" width="15.3552" height="4.60656" rx="2.30328" fill="#AEB1C2"/>
<rect x="556.762" y="350.754" width="21.4973" height="4.60656" rx="2.30328" fill="#AEB1C2"/>
<ellipse cx="454.134" cy="303.669" rx="5.12673" ry="5.12319" fill="#353DAB"/>
<rect x="456.942" y="303.304" width="0.975846" height="5.61499" rx="0.487923" transform="rotate(90 456.942 303.304)" fill="white"/>
<rect x="454.622" y="306.597" width="0.97652" height="5.61111" rx="0.48826" transform="rotate(-180 454.622 306.597)" fill="white"/>
<rect x="470.221" y="301.617" width="44.5301" height="4.60656" rx="2.30328" fill="#AEB1C2"/>
<rect x="562.295" y="301.617" width="15.3552" height="4.60656" rx="2.30328" fill="#AEB1C2"/>
<rect x="87.3937" y="376.839" width="37.9117" height="14.835" rx="7.4175" fill="#C2C4CF"/>
<rect x="143.437" y="376.839" width="37.9117" height="14.835" rx="7.4175" fill="#C2C4CF"/>
<rect x="199.48" y="376.839" width="37.9117" height="14.835" rx="7.4175" fill="#C2C4CF"/>
<rect x="87.3937" y="309.257" width="154.333" height="6.78599" rx="3.393" fill="#84889C"/>
<rect x="112.119" y="286.181" width="95.6033" height="6.59333" rx="3.29667" fill="#868E96"/>
<rect x="87.3937" y="330.686" width="83.5969" height="6.78599" rx="3.393" fill="#84889C"/>
<rect x="87.3937" y="116.403" width="524.17" height="62.6366" rx="13.1867" fill="#F8F9FA"/>
<ellipse cx="130.306" cy="149.383" rx="20.3499" ry="20.3358" fill="white"/>
<path fill-rule="evenodd" clip-rule="evenodd" d="M117.504 158.182L125.284 153.615L130.648 144.221V135.164C130.507 135.164 130.365 135.258 130.258 135.446L123.904 146.573L117.551 157.7C117.444 157.888 117.434 158.059 117.504 158.182Z" fill="#FF4724"/>
<path fill-rule="evenodd" clip-rule="evenodd" d="M130.648 135.164V144.221L136.012 153.615L143.792 158.182C143.863 158.059 143.852 157.888 143.745 157.7L137.392 146.573L131.038 135.446C130.931 135.258 130.789 135.164 130.648 135.164Z" fill="#9E1F63"/>
<path fill-rule="evenodd" clip-rule="evenodd" d="M143.792 158.182L136.012 153.615H125.284L117.504 158.182C117.574 158.307 117.725 158.384 117.939 158.384H143.356C143.571 158.384 143.722 158.307 143.792 158.182Z" fill="#662D91"/>
<path fill-rule="evenodd" clip-rule="evenodd" d="M125.284 153.615H136.012L130.648 144.221L125.284 153.615Z" fill="white"/>
<ellipse cx="116.281" cy="137.017" rx="5.49997" ry="5.49616" fill="url(#paint2_linear)"/>
<rect x="119.293" y="136.624" width="1.04689" height="6.02378" rx="0.523444" transform="rotate(90 119.293 136.624)" fill="white"/>
<rect x="116.805" y="140.158" width="1.0476" height="6.0196" rx="0.523802" transform="rotate(-180 116.805 140.158)" fill="white"/>
<path d="M175.124 135.082L171.729 141.627V145.123H169.715V141.627L166.306 135.082H168.579L170.736 139.671L172.88 135.082H175.124Z" fill="#212529"/>
<path d="M179.968 145.252C179.201 145.252 178.51 145.085 177.897 144.749C177.283 144.404 176.799 143.919 176.444 143.296C176.098 142.673 175.926 141.953 175.926 141.138C175.926 140.323 176.103 139.604 176.458 138.98C176.822 138.357 177.316 137.878 177.94 137.542C178.563 137.197 179.258 137.024 180.026 137.024C180.793 137.024 181.488 137.197 182.111 137.542C182.735 137.878 183.224 138.357 183.579 138.98C183.943 139.604 184.125 140.323 184.125 141.138C184.125 141.953 183.938 142.673 183.564 143.296C183.2 143.919 182.701 144.404 182.068 144.749C181.445 145.085 180.745 145.252 179.968 145.252ZM179.968 143.497C180.332 143.497 180.673 143.411 180.989 143.238C181.315 143.056 181.574 142.788 181.766 142.433C181.958 142.078 182.054 141.647 182.054 141.138C182.054 140.381 181.853 139.8 181.45 139.398C181.057 138.985 180.572 138.779 179.997 138.779C179.421 138.779 178.937 138.985 178.544 139.398C178.16 139.8 177.969 140.381 177.969 141.138C177.969 141.896 178.156 142.481 178.53 142.893C178.913 143.296 179.393 143.497 179.968 143.497Z" fill="#212529"/>
<path d="M193.27 137.154V145.123H191.242V144.116C190.983 144.461 190.642 144.735 190.22 144.936C189.808 145.128 189.357 145.224 188.868 145.224C188.245 145.224 187.693 145.094 187.214 144.835C186.734 144.567 186.356 144.178 186.077 143.67C185.809 143.152 185.675 142.538 185.675 141.829V137.154H187.689V141.541C187.689 142.174 187.847 142.663 188.163 143.008C188.48 143.344 188.911 143.512 189.458 143.512C190.014 143.512 190.451 143.344 190.767 143.008C191.083 142.663 191.242 142.174 191.242 141.541V137.154H193.27Z" fill="#212529"/>
<path d="M206.381 140.966C206.381 141.253 206.362 141.512 206.323 141.742H200.497C200.545 142.318 200.747 142.769 201.102 143.095C201.456 143.421 201.893 143.584 202.411 143.584C203.159 143.584 203.691 143.262 204.007 142.62H206.18C205.949 143.387 205.508 144.02 204.856 144.519C204.204 145.008 203.403 145.252 202.454 145.252C201.687 145.252 200.996 145.085 200.382 144.749C199.778 144.404 199.303 143.919 198.958 143.296C198.623 142.673 198.455 141.953 198.455 141.138C198.455 140.313 198.623 139.589 198.958 138.966C199.294 138.343 199.764 137.863 200.368 137.528C200.972 137.192 201.667 137.024 202.454 137.024C203.211 137.024 203.888 137.187 204.482 137.513C205.086 137.839 205.551 138.304 205.877 138.909C206.213 139.503 206.381 140.189 206.381 140.966ZM204.295 140.39C204.285 139.872 204.098 139.46 203.734 139.153C203.37 138.837 202.924 138.678 202.396 138.678C201.898 138.678 201.476 138.832 201.13 139.139C200.795 139.436 200.588 139.853 200.512 140.39H204.295Z" fill="#212529"/>
<path d="M207.477 141.109C207.477 140.304 207.635 139.589 207.952 138.966C208.278 138.343 208.714 137.863 209.261 137.528C209.817 137.192 210.435 137.024 211.116 137.024C211.711 137.024 212.229 137.144 212.67 137.384C213.121 137.623 213.48 137.926 213.749 138.29V137.154H215.777V145.123H213.749V143.958C213.49 144.332 213.13 144.643 212.67 144.893C212.219 145.133 211.697 145.252 211.102 145.252C210.431 145.252 209.817 145.08 209.261 144.735C208.714 144.389 208.278 143.905 207.952 143.282C207.635 142.649 207.477 141.925 207.477 141.109ZM213.749 141.138C213.749 140.649 213.653 140.232 213.461 139.887C213.269 139.532 213.01 139.263 212.684 139.081C212.358 138.889 212.008 138.793 211.634 138.793C211.26 138.793 210.915 138.885 210.599 139.067C210.282 139.249 210.023 139.517 209.822 139.872C209.63 140.218 209.534 140.63 209.534 141.109C209.534 141.589 209.63 142.011 209.822 142.375C210.023 142.73 210.282 143.004 210.599 143.195C210.925 143.387 211.27 143.483 211.634 143.483C212.008 143.483 212.358 143.392 212.684 143.21C213.01 143.018 213.269 142.749 213.461 142.404C213.653 142.049 213.749 141.627 213.749 141.138Z" fill="#212529"/>
<path d="M219.902 138.391C220.161 137.969 220.497 137.638 220.909 137.398C221.331 137.158 221.81 137.038 222.347 137.038V139.153H221.815C221.182 139.153 220.703 139.302 220.377 139.599C220.06 139.896 219.902 140.414 219.902 141.153V145.123H217.888V137.154H219.902V138.391Z" fill="#212529"/>
<path d="M228.264 137.038C229.213 137.038 229.981 137.341 230.566 137.945C231.151 138.539 231.443 139.374 231.443 140.448V145.123H229.429V140.721C229.429 140.088 229.271 139.604 228.955 139.268C228.638 138.923 228.207 138.75 227.66 138.75C227.104 138.75 226.662 138.923 226.336 139.268C226.02 139.604 225.862 140.088 225.862 140.721V145.123H223.848V137.154H225.862V138.146C226.13 137.801 226.471 137.532 226.883 137.341C227.305 137.139 227.765 137.038 228.264 137.038Z" fill="#212529"/>
<path d="M240.911 140.966C240.911 141.253 240.891 141.512 240.853 141.742H235.027C235.075 142.318 235.276 142.769 235.631 143.095C235.986 143.421 236.422 143.584 236.94 143.584C237.688 143.584 238.221 143.262 238.537 142.62H240.709C240.479 143.387 240.038 144.02 239.386 144.519C238.734 145.008 237.933 145.252 236.983 145.252C236.216 145.252 235.526 145.085 234.912 144.749C234.308 144.404 233.833 143.919 233.488 143.296C233.152 142.673 232.984 141.953 232.984 141.138C232.984 140.313 233.152 139.589 233.488 138.966C233.823 138.343 234.293 137.863 234.898 137.528C235.502 137.192 236.197 137.024 236.983 137.024C237.741 137.024 238.417 137.187 239.012 137.513C239.616 137.839 240.081 138.304 240.407 138.909C240.743 139.503 240.911 140.189 240.911 140.966ZM238.825 140.39C238.815 139.872 238.628 139.46 238.264 139.153C237.899 138.837 237.453 138.678 236.926 138.678C236.427 138.678 236.005 138.832 235.66 139.139C235.324 139.436 235.118 139.853 235.041 140.39H238.825Z" fill="#212529"/>
<path d="M242.007 141.109C242.007 140.304 242.165 139.589 242.481 138.966C242.807 138.343 243.249 137.863 243.805 137.528C244.361 137.192 244.98 137.024 245.66 137.024C246.178 137.024 246.672 137.139 247.142 137.369C247.612 137.59 247.986 137.887 248.264 138.261V134.478H250.307V145.123H248.264V143.943C248.015 144.337 247.665 144.653 247.214 144.893C246.763 145.133 246.241 145.252 245.646 145.252C244.975 145.252 244.361 145.08 243.805 144.735C243.249 144.389 242.807 143.905 242.481 143.282C242.165 142.649 242.007 141.925 242.007 141.109ZM248.279 141.138C248.279 140.649 248.183 140.232 247.991 139.887C247.799 139.532 247.54 139.263 247.214 139.081C246.888 138.889 246.538 138.793 246.164 138.793C245.79 138.793 245.445 138.885 245.128 139.067C244.812 139.249 244.553 139.517 244.351 139.872C244.16 140.218 244.064 140.63 244.064 141.109C244.064 141.589 244.16 142.011 244.351 142.375C244.553 142.73 244.812 143.004 245.128 143.195C245.454 143.387 245.799 143.483 246.164 143.483C246.538 143.483 246.888 143.392 247.214 143.21C247.54 143.018 247.799 142.749 247.991 142.404C248.183 142.049 248.279 141.627 248.279 141.138Z" fill="#212529"/>
<path d="M255.515 136.492V134.636H258.981V145.123H256.91V136.492H255.515Z" fill="#212529"/>
<path d="M266.552 137.254C266.457 136.851 266.289 136.549 266.049 136.348C265.819 136.147 265.483 136.046 265.042 136.046C264.38 136.046 263.891 136.314 263.575 136.851C263.268 137.379 263.11 138.242 263.1 139.441C263.33 139.057 263.666 138.76 264.107 138.549C264.548 138.328 265.028 138.218 265.545 138.218C266.169 138.218 266.72 138.352 267.2 138.621C267.679 138.889 268.053 139.283 268.322 139.8C268.59 140.309 268.725 140.922 268.725 141.642C268.725 142.323 268.586 142.932 268.307 143.469C268.039 143.996 267.641 144.408 267.113 144.706C266.586 145.003 265.958 145.152 265.229 145.152C264.232 145.152 263.445 144.931 262.87 144.49C262.304 144.049 261.906 143.435 261.676 142.649C261.455 141.853 261.345 140.874 261.345 139.714C261.345 137.959 261.647 136.636 262.251 135.744C262.855 134.842 263.81 134.392 265.114 134.392C266.121 134.392 266.902 134.665 267.459 135.212C268.015 135.758 268.336 136.439 268.423 137.254H266.552ZM265.085 139.872C264.577 139.872 264.15 140.021 263.805 140.318C263.46 140.616 263.287 141.047 263.287 141.613C263.287 142.179 263.445 142.625 263.762 142.951C264.088 143.277 264.543 143.44 265.128 143.44C265.646 143.44 266.054 143.282 266.351 142.965C266.658 142.649 266.811 142.222 266.811 141.685C266.811 141.129 266.663 140.687 266.365 140.361C266.078 140.035 265.651 139.872 265.085 139.872Z" fill="#212529"/>
<path d="M271.582 145.224C271.218 145.224 270.916 145.113 270.676 144.893C270.446 144.663 270.331 144.38 270.331 144.044C270.331 143.708 270.446 143.43 270.676 143.21C270.916 142.98 271.218 142.864 271.582 142.864C271.937 142.864 272.23 142.98 272.46 143.21C272.69 143.43 272.805 143.708 272.805 144.044C272.805 144.38 272.69 144.663 272.46 144.893C272.23 145.113 271.937 145.224 271.582 145.224Z" fill="#212529"/>
<path d="M274.37 137.398C274.418 136.439 274.753 135.701 275.377 135.183C276.009 134.655 276.839 134.392 277.865 134.392C278.565 134.392 279.165 134.516 279.663 134.766C280.162 135.005 280.536 135.336 280.785 135.758C281.044 136.171 281.174 136.64 281.174 137.168C281.174 137.772 281.016 138.285 280.699 138.707C280.392 139.119 280.023 139.398 279.591 139.541V139.599C280.148 139.772 280.579 140.079 280.886 140.52C281.203 140.961 281.361 141.527 281.361 142.217C281.361 142.793 281.227 143.306 280.958 143.756C280.699 144.207 280.311 144.562 279.793 144.821C279.285 145.07 278.671 145.195 277.951 145.195C276.868 145.195 275.986 144.922 275.305 144.375C274.624 143.828 274.264 143.023 274.226 141.958H276.182C276.201 142.428 276.36 142.807 276.657 143.095C276.964 143.373 277.381 143.512 277.908 143.512C278.397 143.512 278.771 143.378 279.03 143.109C279.299 142.831 279.433 142.476 279.433 142.044C279.433 141.469 279.251 141.057 278.887 140.807C278.522 140.558 277.956 140.433 277.189 140.433H276.772V138.779H277.189C278.551 138.779 279.232 138.324 279.232 137.412C279.232 137 279.107 136.679 278.858 136.449C278.618 136.218 278.268 136.103 277.808 136.103C277.357 136.103 277.007 136.228 276.758 136.477C276.518 136.717 276.379 137.024 276.34 137.398H274.37Z" fill="#212529"/>
<path d="M292.594 139.973C293.16 140.079 293.625 140.361 293.99 140.822C294.354 141.282 294.536 141.81 294.536 142.404C294.536 142.941 294.402 143.416 294.134 143.828C293.875 144.231 293.496 144.548 292.997 144.778C292.499 145.008 291.909 145.123 291.228 145.123H286.898V135.082H291.041C291.722 135.082 292.307 135.192 292.796 135.413C293.295 135.633 293.669 135.94 293.918 136.334C294.177 136.727 294.306 137.173 294.306 137.671C294.306 138.256 294.148 138.745 293.832 139.139C293.525 139.532 293.112 139.81 292.594 139.973ZM288.912 139.225H290.753C291.233 139.225 291.602 139.119 291.861 138.909C292.12 138.688 292.249 138.376 292.249 137.973C292.249 137.571 292.12 137.259 291.861 137.038C291.602 136.818 291.233 136.708 290.753 136.708H288.912V139.225ZM290.94 143.483C291.429 143.483 291.808 143.368 292.077 143.138C292.355 142.908 292.494 142.582 292.494 142.16C292.494 141.728 292.35 141.392 292.062 141.153C291.774 140.903 291.386 140.779 290.897 140.779H288.912V143.483H290.94Z" fill="#212529"/>
<path d="M302.442 143.21H298.443L297.781 145.123H295.667L299.278 135.068H301.622L305.233 145.123H303.104L302.442 143.21ZM301.896 141.599L300.443 137.398L298.99 141.599H301.896Z" fill="#212529"/>
<path d="M313.559 135.082V136.708H310.884V145.123H308.87V136.708H306.194V135.082H313.559Z" fill="#212529"/>
<path d="M322.398 138.808H321.003V145.123H318.96V138.808H318.054V137.154H318.96V136.751C318.96 135.773 319.238 135.053 319.794 134.593C320.351 134.133 321.19 133.917 322.312 133.946V135.643C321.823 135.633 321.482 135.715 321.291 135.888C321.099 136.06 321.003 136.372 321.003 136.823V137.154H322.398V138.808Z" fill="#212529"/>
<path d="M325.861 138.391C326.12 137.969 326.456 137.638 326.868 137.398C327.29 137.158 327.77 137.038 328.307 137.038V139.153H327.774C327.141 139.153 326.662 139.302 326.336 139.599C326.019 139.896 325.861 140.414 325.861 141.153V145.123H323.847V137.154H325.861V138.391Z" fill="#212529"/>
<path d="M333.346 145.252C332.578 145.252 331.888 145.085 331.274 144.749C330.66 144.404 330.176 143.919 329.821 143.296C329.476 142.673 329.303 141.953 329.303 141.138C329.303 140.323 329.481 139.604 329.836 138.98C330.2 138.357 330.694 137.878 331.317 137.542C331.941 137.197 332.636 137.024 333.403 137.024C334.17 137.024 334.866 137.197 335.489 137.542C336.112 137.878 336.602 138.357 336.956 138.98C337.321 139.604 337.503 140.323 337.503 141.138C337.503 141.953 337.316 142.673 336.942 143.296C336.578 143.919 336.079 144.404 335.446 144.749C334.823 145.085 334.122 145.252 333.346 145.252ZM333.346 143.497C333.71 143.497 334.051 143.411 334.367 143.238C334.693 143.056 334.952 142.788 335.144 142.433C335.336 142.078 335.432 141.647 335.432 141.138C335.432 140.381 335.23 139.8 334.827 139.398C334.434 138.985 333.95 138.779 333.374 138.779C332.799 138.779 332.315 138.985 331.922 139.398C331.538 139.8 331.346 140.381 331.346 141.138C331.346 141.896 331.533 142.481 331.907 142.893C332.291 143.296 332.77 143.497 333.346 143.497Z" fill="#212529"/>
<path d="M349.021 137.038C349.999 137.038 350.786 137.341 351.38 137.945C351.985 138.539 352.287 139.374 352.287 140.448V145.123H350.273V140.721C350.273 140.098 350.115 139.623 349.798 139.297C349.482 138.961 349.05 138.793 348.503 138.793C347.957 138.793 347.52 138.961 347.194 139.297C346.878 139.623 346.72 140.098 346.72 140.721V145.123H344.706V140.721C344.706 140.098 344.547 139.623 344.231 139.297C343.914 138.961 343.483 138.793 342.936 138.793C342.38 138.793 341.939 138.961 341.613 139.297C341.296 139.623 341.138 140.098 341.138 140.721V145.123H339.124V137.154H341.138V138.117C341.397 137.782 341.728 137.518 342.131 137.326C342.543 137.134 342.994 137.038 343.483 137.038C344.106 137.038 344.663 137.173 345.152 137.441C345.641 137.7 346.02 138.074 346.288 138.563C346.547 138.103 346.921 137.734 347.41 137.456C347.909 137.177 348.446 137.038 349.021 137.038Z" fill="#212529"/>
<path d="M363.61 139.973C364.176 140.079 364.641 140.361 365.005 140.822C365.37 141.282 365.552 141.81 365.552 142.404C365.552 142.941 365.418 143.416 365.149 143.828C364.89 144.231 364.511 144.548 364.013 144.778C363.514 145.008 362.924 145.123 362.243 145.123H357.913V135.082H362.056C362.737 135.082 363.322 135.192 363.811 135.413C364.31 135.633 364.684 135.94 364.933 136.334C365.192 136.727 365.322 137.173 365.322 137.671C365.322 138.256 365.163 138.745 364.847 139.139C364.54 139.532 364.128 139.81 363.61 139.973ZM359.927 139.225H361.768C362.248 139.225 362.617 139.119 362.876 138.909C363.135 138.688 363.265 138.376 363.265 137.973C363.265 137.571 363.135 137.259 362.876 137.038C362.617 136.818 362.248 136.708 361.768 136.708H359.927V139.225ZM361.955 143.483C362.445 143.483 362.823 143.368 363.092 143.138C363.37 142.908 363.509 142.582 363.509 142.16C363.509 141.728 363.365 141.392 363.078 141.153C362.79 140.903 362.401 140.779 361.912 140.779H359.927V143.483H361.955Z" fill="#212529"/>
<path d="M369.315 138.391C369.574 137.969 369.909 137.638 370.322 137.398C370.744 137.158 371.223 137.038 371.76 137.038V139.153H371.228C370.595 139.153 370.115 139.302 369.789 139.599C369.473 139.896 369.315 140.414 369.315 141.153V145.123H367.301V137.154H369.315V138.391Z" fill="#212529"/>
<path d="M372.743 141.109C372.743 140.304 372.901 139.589 373.217 138.966C373.543 138.343 373.98 137.863 374.526 137.528C375.083 137.192 375.701 137.024 376.382 137.024C376.977 137.024 377.495 137.144 377.936 137.384C378.386 137.623 378.746 137.926 379.015 138.29V137.154H381.043V145.123H379.015V143.958C378.756 144.332 378.396 144.643 377.936 144.893C377.485 145.133 376.962 145.252 376.368 145.252C375.696 145.252 375.083 145.08 374.526 144.735C373.98 144.389 373.543 143.905 373.217 143.282C372.901 142.649 372.743 141.925 372.743 141.109ZM379.015 141.138C379.015 140.649 378.919 140.232 378.727 139.887C378.535 139.532 378.276 139.263 377.95 139.081C377.624 138.889 377.274 138.793 376.9 138.793C376.526 138.793 376.181 138.885 375.864 139.067C375.548 139.249 375.289 139.517 375.087 139.872C374.896 140.218 374.8 140.63 374.8 141.109C374.8 141.589 374.896 142.011 375.087 142.375C375.289 142.73 375.548 143.004 375.864 143.195C376.19 143.387 376.536 143.483 376.9 143.483C377.274 143.483 377.624 143.392 377.95 143.21C378.276 143.018 378.535 142.749 378.727 142.404C378.919 142.049 379.015 141.627 379.015 141.138Z" fill="#212529"/>
<path d="M386.477 143.267L388.491 137.154H390.634L387.685 145.123H385.24L382.305 137.154H384.463L386.477 143.267Z" fill="#212529"/>
<path d="M399.317 140.966C399.317 141.253 399.298 141.512 399.26 141.742H393.434C393.482 142.318 393.683 142.769 394.038 143.095C394.393 143.421 394.829 143.584 395.347 143.584C396.095 143.584 396.627 143.262 396.944 142.62H399.116C398.886 143.387 398.445 144.02 397.793 144.519C397.141 145.008 396.34 145.252 395.39 145.252C394.623 145.252 393.933 145.085 393.319 144.749C392.715 144.404 392.24 143.919 391.895 143.296C391.559 142.673 391.391 141.953 391.391 141.138C391.391 140.313 391.559 139.589 391.895 138.966C392.23 138.343 392.7 137.863 393.304 137.528C393.909 137.192 394.604 137.024 395.39 137.024C396.148 137.024 396.824 137.187 397.419 137.513C398.023 137.839 398.488 138.304 398.814 138.909C399.15 139.503 399.317 140.189 399.317 140.966ZM397.232 140.39C397.222 139.872 397.035 139.46 396.671 139.153C396.306 138.837 395.86 138.678 395.333 138.678C394.834 138.678 394.412 138.832 394.067 139.139C393.731 139.436 393.525 139.853 393.448 140.39H397.232Z" fill="#212529"/>
<path d="M174.462 155.894C174.462 156.431 174.333 156.935 174.074 157.405C173.824 157.875 173.426 158.253 172.88 158.541C172.343 158.829 171.662 158.973 170.837 158.973H169.154V162.828H167.14V152.787H170.837C171.614 152.787 172.276 152.921 172.822 153.19C173.369 153.458 173.777 153.827 174.045 154.297C174.323 154.767 174.462 155.3 174.462 155.894ZM170.751 157.347C171.307 157.347 171.719 157.222 171.988 156.973C172.256 156.714 172.391 156.354 172.391 155.894C172.391 154.916 171.844 154.427 170.751 154.427H169.154V157.347H170.751Z" fill="#212529"/>
<path d="M178.05 156.096C178.309 155.674 178.644 155.343 179.057 155.103C179.479 154.863 179.958 154.743 180.495 154.743V156.858H179.963C179.33 156.858 178.851 157.007 178.525 157.304C178.208 157.601 178.05 158.119 178.05 158.858V162.828H176.036V154.858H178.05V156.096Z" fill="#212529"/>
<path d="M183.017 153.909C182.662 153.909 182.365 153.799 182.125 153.578C181.895 153.348 181.78 153.065 181.78 152.729C181.78 152.394 181.895 152.116 182.125 151.895C182.365 151.665 182.662 151.55 183.017 151.55C183.372 151.55 183.664 151.665 183.895 151.895C184.134 152.116 184.254 152.394 184.254 152.729C184.254 153.065 184.134 153.348 183.895 153.578C183.664 153.799 183.372 153.909 183.017 153.909ZM184.01 154.858V162.828H181.996V154.858H184.01Z" fill="#212529"/>
<path d="M189.466 160.972L191.48 154.858H193.624L190.675 162.828H188.229L185.295 154.858H187.452L189.466 160.972Z" fill="#212529"/>
<path d="M194.381 158.814C194.381 158.009 194.539 157.294 194.855 156.671C195.182 156.048 195.618 155.568 196.165 155.232C196.721 154.897 197.339 154.729 198.02 154.729C198.615 154.729 199.133 154.849 199.574 155.089C200.025 155.328 200.384 155.63 200.653 155.995V154.858H202.681V162.828H200.653V161.663C200.394 162.037 200.034 162.348 199.574 162.598C199.123 162.837 198.6 162.957 198.006 162.957C197.335 162.957 196.721 162.785 196.165 162.439C195.618 162.094 195.182 161.61 194.855 160.987C194.539 160.354 194.381 159.63 194.381 158.814ZM200.653 158.843C200.653 158.354 200.557 157.937 200.365 157.592C200.173 157.237 199.914 156.968 199.588 156.786C199.262 156.594 198.912 156.498 198.538 156.498C198.164 156.498 197.819 156.589 197.502 156.772C197.186 156.954 196.927 157.222 196.726 157.577C196.534 157.922 196.438 158.335 196.438 158.814C196.438 159.294 196.534 159.716 196.726 160.08C196.927 160.435 197.186 160.708 197.502 160.9C197.828 161.092 198.174 161.188 198.538 161.188C198.912 161.188 199.262 161.097 199.588 160.915C199.914 160.723 200.173 160.454 200.365 160.109C200.557 159.754 200.653 159.332 200.653 158.843Z" fill="#212529"/>
<path d="M207.137 156.513V160.368C207.137 160.637 207.199 160.833 207.324 160.958C207.458 161.073 207.678 161.13 207.985 161.13H208.92V162.828H207.654C205.957 162.828 205.108 162.003 205.108 160.354V156.513H204.159V154.858H205.108V152.888H207.137V154.858H208.92V156.513H207.137Z" fill="#212529"/>
<path d="M217.921 158.671C217.921 158.958 217.902 159.217 217.864 159.447H212.038C212.086 160.023 212.287 160.473 212.642 160.8C212.997 161.126 213.433 161.289 213.951 161.289C214.699 161.289 215.231 160.967 215.548 160.325H217.72C217.49 161.092 217.048 161.725 216.396 162.224C215.744 162.713 214.943 162.957 213.994 162.957C213.227 162.957 212.536 162.789 211.923 162.454C211.318 162.109 210.844 161.624 210.498 161.001C210.163 160.378 209.995 159.658 209.995 158.843C209.995 158.018 210.163 157.294 210.498 156.671C210.834 156.048 211.304 155.568 211.908 155.232C212.512 154.897 213.208 154.729 213.994 154.729C214.752 154.729 215.428 154.892 216.022 155.218C216.627 155.544 217.092 156.009 217.418 156.613C217.753 157.208 217.921 157.894 217.921 158.671ZM215.835 158.095C215.826 157.577 215.639 157.165 215.274 156.858C214.91 156.542 214.464 156.383 213.936 156.383C213.438 156.383 213.016 156.537 212.671 156.844C212.335 157.141 212.129 157.558 212.052 158.095H215.835Z" fill="#212529"/>
<path d="M229.263 160.915H225.264L224.603 162.828H222.488L226.099 152.773H228.444L232.054 162.828H229.925L229.263 160.915ZM228.717 159.303L227.264 155.103L225.811 159.303H228.717Z" fill="#212529"/>
<path d="M233.03 158.814C233.03 158.009 233.188 157.294 233.505 156.671C233.831 156.048 234.272 155.568 234.828 155.232C235.384 154.897 236.003 154.729 236.684 154.729C237.202 154.729 237.695 154.844 238.165 155.074C238.635 155.295 239.009 155.592 239.287 155.966V152.183H241.33V162.828H239.287V161.648C239.038 162.041 238.688 162.358 238.237 162.598C237.787 162.837 237.264 162.957 236.669 162.957C235.998 162.957 235.384 162.785 234.828 162.439C234.272 162.094 233.831 161.61 233.505 160.987C233.188 160.354 233.03 159.63 233.03 158.814ZM239.302 158.843C239.302 158.354 239.206 157.937 239.014 157.592C238.822 157.237 238.563 156.968 238.237 156.786C237.911 156.594 237.561 156.498 237.187 156.498C236.813 156.498 236.468 156.589 236.151 156.772C235.835 156.954 235.576 157.222 235.375 157.577C235.183 157.922 235.087 158.335 235.087 158.814C235.087 159.294 235.183 159.716 235.375 160.08C235.576 160.435 235.835 160.708 236.151 160.9C236.478 161.092 236.823 161.188 237.187 161.188C237.561 161.188 237.911 161.097 238.237 160.915C238.563 160.723 238.822 160.454 239.014 160.109C239.206 159.754 239.302 159.332 239.302 158.843Z" fill="#212529"/>
<path d="M246.491 162.957C245.838 162.957 245.253 162.842 244.736 162.612C244.218 162.372 243.805 162.051 243.498 161.648C243.201 161.245 243.038 160.8 243.009 160.31H245.038C245.076 160.617 245.225 160.871 245.484 161.073C245.752 161.274 246.083 161.375 246.476 161.375C246.86 161.375 247.157 161.298 247.368 161.145C247.589 160.991 247.699 160.795 247.699 160.555C247.699 160.296 247.565 160.104 247.296 159.98C247.037 159.845 246.62 159.701 246.045 159.548C245.45 159.404 244.961 159.256 244.577 159.102C244.203 158.949 243.877 158.714 243.599 158.397C243.331 158.081 243.196 157.654 243.196 157.117C243.196 156.676 243.321 156.273 243.57 155.909C243.829 155.544 244.194 155.256 244.664 155.045C245.143 154.834 245.704 154.729 246.347 154.729C247.296 154.729 248.054 154.969 248.62 155.448C249.185 155.918 249.497 156.556 249.555 157.361H247.627C247.598 157.045 247.464 156.796 247.224 156.613C246.994 156.422 246.682 156.326 246.289 156.326C245.925 156.326 245.642 156.393 245.44 156.527C245.249 156.661 245.153 156.848 245.153 157.088C245.153 157.357 245.287 157.563 245.556 157.707C245.824 157.841 246.241 157.98 246.807 158.124C247.382 158.268 247.857 158.416 248.231 158.57C248.605 158.723 248.927 158.963 249.195 159.289C249.473 159.606 249.617 160.028 249.627 160.555C249.627 161.015 249.497 161.428 249.238 161.792C248.989 162.157 248.624 162.444 248.145 162.655C247.675 162.857 247.124 162.957 246.491 162.957Z" fill="#212529"/>
<path d="M254.027 152.614L253.797 159.562H252.1L251.855 152.614H254.027ZM252.992 162.929C252.627 162.929 252.325 162.818 252.085 162.598C251.855 162.368 251.74 162.085 251.74 161.749C251.74 161.413 251.855 161.135 252.085 160.915C252.325 160.684 252.627 160.569 252.992 160.569C253.346 160.569 253.639 160.684 253.869 160.915C254.099 161.135 254.214 161.413 254.214 161.749C254.214 162.085 254.099 162.368 253.869 162.598C253.639 162.818 253.346 162.929 252.992 162.929Z" fill="#212529"/>
<rect x="468.238" y="128.525" width="107.142" height="36.5164" rx="18.2582" fill="#4C54D2"/>
<path d="M499.741 147.078C499.741 146.06 499.968 145.15 500.423 144.349C500.888 143.538 501.516 142.91 502.307 142.465C503.108 142.01 504.003 141.782 504.992 141.782C506.149 141.782 507.163 142.079 508.033 142.672C508.904 143.266 509.512 144.087 509.858 145.135H507.47C507.232 144.64 506.896 144.269 506.461 144.022C506.036 143.775 505.541 143.651 504.977 143.651C504.374 143.651 503.835 143.795 503.36 144.082C502.895 144.359 502.53 144.754 502.262 145.268C502.005 145.783 501.877 146.386 501.877 147.078C501.877 147.761 502.005 148.364 502.262 148.888C502.53 149.402 502.895 149.803 503.36 150.09C503.835 150.367 504.374 150.505 504.977 150.505C505.541 150.505 506.036 150.382 506.461 150.134C506.896 149.877 507.232 149.501 507.47 149.007H509.858C509.512 150.065 508.904 150.891 508.033 151.484C507.173 152.068 506.159 152.36 504.992 152.36C504.003 152.36 503.108 152.137 502.307 151.692C501.516 151.237 500.888 150.609 500.423 149.808C499.968 149.007 499.741 148.097 499.741 147.078ZM513.709 141.293V152.271H511.632V141.293H513.709ZM515.227 148.132C515.227 147.301 515.39 146.564 515.716 145.921C516.053 145.278 516.503 144.784 517.066 144.438C517.64 144.091 518.278 143.918 518.98 143.918C519.593 143.918 520.127 144.042 520.582 144.289C521.047 144.537 521.418 144.848 521.695 145.224V144.052H523.787V152.271H521.695V151.069C521.428 151.455 521.057 151.776 520.582 152.033C520.117 152.28 519.578 152.404 518.965 152.404C518.273 152.404 517.64 152.226 517.066 151.87C516.503 151.514 516.053 151.014 515.716 150.372C515.39 149.719 515.227 148.972 515.227 148.132ZM521.695 148.161C521.695 147.657 521.596 147.227 521.398 146.871C521.2 146.505 520.933 146.228 520.597 146.04C520.261 145.842 519.9 145.743 519.514 145.743C519.128 145.743 518.772 145.837 518.446 146.025C518.12 146.213 517.853 146.49 517.645 146.856C517.447 147.212 517.348 147.637 517.348 148.132C517.348 148.626 517.447 149.061 517.645 149.437C517.853 149.803 518.12 150.085 518.446 150.283C518.782 150.48 519.138 150.579 519.514 150.579C519.9 150.579 520.261 150.485 520.597 150.297C520.933 150.1 521.2 149.823 521.398 149.467C521.596 149.101 521.695 148.666 521.695 148.161ZM526.868 143.073C526.502 143.073 526.196 142.959 525.949 142.732C525.711 142.494 525.592 142.202 525.592 141.856C525.592 141.51 525.711 141.223 525.949 140.996C526.196 140.759 526.502 140.64 526.868 140.64C527.234 140.64 527.536 140.759 527.773 140.996C528.02 141.223 528.144 141.51 528.144 141.856C528.144 142.202 528.02 142.494 527.773 142.732C527.536 142.959 527.234 143.073 526.868 143.073ZM527.892 144.052V152.271H525.815V144.052H527.892ZM540.15 143.933C541.159 143.933 541.97 144.245 542.583 144.868C543.206 145.481 543.518 146.341 543.518 147.449V152.271H541.441V147.731C541.441 147.088 541.278 146.599 540.951 146.262C540.625 145.916 540.18 145.743 539.616 145.743C539.053 145.743 538.603 145.916 538.266 146.262C537.94 146.599 537.777 147.088 537.777 147.731V152.271H535.7V147.731C535.7 147.088 535.537 146.599 535.21 146.262C534.884 145.916 534.439 145.743 533.875 145.743C533.302 145.743 532.847 145.916 532.51 146.262C532.184 146.599 532.021 147.088 532.021 147.731V152.271H529.944V144.052H532.021V145.046C532.288 144.7 532.629 144.428 533.044 144.23C533.47 144.032 533.935 143.933 534.439 143.933C535.082 143.933 535.655 144.072 536.16 144.349C536.664 144.616 537.055 145.001 537.332 145.506C537.599 145.031 537.984 144.65 538.489 144.363C539.003 144.077 539.557 143.933 540.15 143.933Z" fill="white"/>
<rect x="87.3937" y="281.236" width="16.4833" height="16.4833" rx="4.945" fill="#84889C"/>
<circle cx="367.341" cy="298.546" r="58.3497" fill="#404261"/>
<path fill-rule="evenodd" clip-rule="evenodd" d="M367.341 356.896C397.289 356.896 421.968 334.334 425.306 305.279L367.341 298.546V240.197C335.115 240.197 308.991 266.321 308.991 298.546C308.991 330.772 335.115 356.896 367.341 356.896Z" fill="#737ADE"/>
</g>
<defs>
<filter id="filter0_d" x="0.163933" y="0.163933" width="682.746" height="484.672" filterUnits="userSpaceOnUse" color-interpolation-filters="sRGB">
<feFlood flood-opacity="0" result="BackgroundImageFix"/>
<feColorMatrix in="SourceAlpha" type="matrix" values="0 0 0 0 0 0 0 0 0 0 0 0 0 0 0 0 0 0 127 0"/>
<feOffset/>
<feGaussianBlur stdDeviation="19.918"/>
<feColorMatrix type="matrix" values="0 0 0 0 0 0 0 0 0 0 0 0 0 0 0 0 0 0 0.15 0"/>
<feBlend mode="normal" in2="BackgroundImageFix" result="effect1_dropShadow"/>
<feBlend mode="normal" in="SourceGraphic" in2="effect1_dropShadow" result="shape"/>
</filter>
<linearGradient id="paint0_linear" x1="558.977" y1="81.1092" x2="582.055" y2="81.1092" gradientUnits="userSpaceOnUse">
<stop stop-color="#FF5500"/>
<stop offset="0.409877" stop-color="#FF5500"/>
<stop offset="0.49434" stop-color="#FF4530"/>
<stop offset="0.572365" stop-color="#FF2000"/>
<stop offset="1" stop-color="#FF2000"/>
</linearGradient>
<linearGradient id="paint1_linear" x1="570.49" y1="79.1867" x2="578.869" y2="79.1867" gradientUnits="userSpaceOnUse">
<stop stop-color="white"/>
<stop offset="1" stop-color="#F4F4F4"/>
</linearGradient>
<linearGradient id="paint2_linear" x1="109.832" y1="134.955" x2="121.353" y2="144.618" gradientUnits="userSpaceOnUse">
<stop stop-color="#4C54D2"/>
<stop offset="1" stop-color="#A3278F"/>
</linearGradient>
</defs>
</svg>
